<svg id="Layer_2" data-name="Layer 2" xmlns="http://www.w3.org/2000/svg" viewBox="0 0 265.53 354.99"><defs><style>.cls-1{fill:#4ac517;}.cls-1,.cls-2,.cls-3,.cls-4,.cls-5,.cls-6{stroke:#000;stroke-miterlimit:10;}.cls-2{fill:#fff;}.cls-3{fill:#39afdf;}.cls-4{fill:#f4b610;}.cls-5{fill:#fcfcfc;}.cls-6{fill:#f9f9f9;}</style></defs><title>logo</title><path class="cls-1" d="M179.5,226.5v144s21,12,34,0v-37l39-1s103-55,0-106Z" transform="translate(-174.97 -220.28)"/><path class="cls-2" d="M214,257v25h36s13-15,0-25Z" transform="translate(-174.97 -220.28)"/><path class="cls-3" d="M397,314v22s-48,21.33-59-35.33c0,0-6-50.67,59-43.67,0,0,13,23.67,28-.66,0,0,14-16.34-14-30.34,0,0-98.44-34.67-113.22,74.67,0,0,6.22,71,79.22,74.67,0,0,53,1.67,58-30.33V298.06S433,280,420,282H372s-9,25,0,30S397,314,397,314Z" transform="translate(-174.97 -220.28)"/><path class="cls-4" d="M298.28,369H315v35s53-39,89,5,36,98,36,98-1,100-63,55c0,0-33-36-36-33l-76-1s-36,55.28-64,45.64c0,0-44.5-9.14-16-124.64,0,0,27.56-68,70.78-61,0,0,38.78,10,42.5,15Z" transform="translate(-174.97 -220.28)"/><circle class="cls-5" cx="66.03" cy="249.97" r="35.82"/><polygon class="cls-4" points="59.92 231.72 59.92 245.17 47.03 245.17 47.03 255.73 59.92 255.73 59.92 268.22 72.03 268.22 72.03 256.69 85.03 256.69 85.03 245.17 72.03 245.17 72.03 231.72 59.92 231.72"/><circle class="cls-6" cx="197.23" cy="251.6" r="35.82"/><rect class="cls-4" x="176.03" y="244.72" width="10" height="11"/><rect class="cls-4" x="191.42" y="262.72" width="11.61" height="11"/><rect class="cls-4" x="209.03" y="244.72" width="11" height="11"/><rect class="cls-4" x="191.42" y="226.45" width="11.61" height="12.88"/></svg>